<?xml version="1.0" encoding="iso-8859-1"?>
<!-- Uploaded to: SVG Repo, www.svgrepo.com, Generator: SVG Repo Mixer Tools -->
<!DOCTYPE svg PUBLIC "-//W3C//DTD SVG 1.1//EN" "http://www.w3.org/Graphics/SVG/1.1/DTD/svg11.dtd">
<svg fill="#000000" version="1.1" id="Capa_1" xmlns="http://www.w3.org/2000/svg" xmlns:xlink="http://www.w3.org/1999/xlink" 
	 width="800px" height="800px" viewBox="0 0 372.229 372.229"
	 xml:space="preserve">
<g>
	<path d="M137.543,30.271c-14.217,4.455-50.252,47.158-52.465,65.812c-2.225,18.689,16.009,55.145,16.009,55.145
		s-39.124-25.351-29.345-60.481c9.786-35.13,22.683-76.905,70.25-88.927c47.566-12.016,67.978,39.387,67.978,39.387
		s69.42,28.2,52.068,57.113c-4.811-17.604-6.224-14.24-6.224-14.24s8.011,34.231-0.888,44.478
		c4.169-15.986-16.009-46.166-13.79-33.805c12.016,18.24,13.335,74.266,13.335,74.266s9.938-2.522,10.24,8.005
		c-4.448-3.112-12.902,0-12.902,0s28.014,10.235,24.008,19.115c-5.769-4.437-22.222-4.875-22.222-4.875s10.673,41.331,18.229,51.572
		c7.555,10.229,20.015,31.132,30.231,40.905c-5.324,3.117-82.265-55.584-82.265-55.584s35.58,50.247,59.576,55.584
		c-14.223,4.449-48.017-12.448-48.017-12.448s34.227,37.354,64.47,39.573c-31.119,25.352-96.477-47.572-96.477-47.572
		s48.974,84.671,33.339,94.27c-7.111-10.229-18.217-21.801-18.217-21.801s18.672,32.019,5.769,36.467
		c-2.674-16.453-17.772-28.469-17.772-28.469s-4.017,12.46,4.438,26.694c-20.003,3.55-32.451-52.045-32.451-52.045l-13.779-126.276
		c0,0,33.793-94.257,28.901-117.384C184.695,51.611,151.777,25.834,137.543,30.271z"/>
</g>
</svg>