<?xml version="1.0" encoding="iso-8859-1"?>
<!-- Uploaded to: SVG Repo, www.svgrepo.com, Generator: SVG Repo Mixer Tools -->
<!DOCTYPE svg PUBLIC "-//W3C//DTD SVG 1.1//EN" "http://www.w3.org/Graphics/SVG/1.1/DTD/svg11.dtd">
<svg fill="#000000" version="1.1" id="Capa_1" xmlns="http://www.w3.org/2000/svg" xmlns:xlink="http://www.w3.org/1999/xlink" 
	 width="800px" height="800px" viewBox="0 0 59.306 59.305"
	 xml:space="preserve">
<g>
	<g>
		<path d="M51.274,53.932c0-3.839,1.403-7.973-10.924-7.973c-9.426,0-10.591-4.138-10.693-4.605
			c-0.002-0.031-0.002-0.044-0.002-0.044s-0.001,0.007-0.003,0.017c-0.002-0.01-0.003-0.017-0.003-0.017s-0.001,0.013-0.002,0.044
			c-0.103,0.468-1.268,4.605-10.694,4.605c-12.326,0-10.924,4.134-10.924,7.973c0,3.838,2.73,3.838,2.73,0
			c0-3.704,17.654,2.345,18.892-3.724c1.239,6.069,18.891,0.02,18.891,3.724C48.543,57.77,51.274,57.77,51.274,53.932z"/>
		<path d="M55.762,21.354c-1.151,0-2.167,0.555-2.815,1.406c-0.399-4.651-1.418-12.038-3.962-15.892
			c-3.887-5.894-12.312-4.126-12.312-4.126s-3.241-0.25-3.241,5.14c0,2.373-2.614,2.668-3.613,2.696
			c-0.011,0-0.031,0.001-0.045,0.001c-0.045,0.001-0.085,0.001-0.122,0.001s-0.077,0-0.122-0.001c-0.013,0-0.034,0-0.045-0.001
			c-0.999-0.027-3.613-0.323-3.613-2.696c0-5.389-3.241-5.14-3.241-5.14s-8.425-1.768-12.313,4.125
			c-2.542,3.854-3.562,11.241-3.961,15.891c-0.647-0.851-1.663-1.405-2.814-1.405C1.585,21.354,0,22.941,0,24.897
			c0,8.825,22.697,9.51,29.653,9.51c6.958,0,29.653-0.686,29.653-9.51C59.305,22.941,57.719,21.354,55.762,21.354z M8.019,20.4
			c0,0,12.517,1.76,21.804,1.771c9.144-0.01,21.469-1.771,21.469-1.771c0.163,1.423,0.295,2.826,0.389,3.901
			c-2.672,1.283-10.237,3.021-22.03,3.021c-11.789,0-19.353-1.736-22.026-3.02C7.719,23.228,7.853,21.824,8.019,20.4z"/>
	</g>
</g>
</svg>